<svg width="25" height="25" viewBox="0 0 25 25" fill="none" xmlns="http://www.w3.org/2000/svg">
<path d="M11.946 7.33081C8.84058 7.33081 6.33569 9.83569 6.33569 12.9412C6.33569 16.0466 8.84058 18.5515 11.946 18.5515C15.0515 18.5515 17.5564 16.0466 17.5564 12.9412C17.5564 9.83569 15.0515 7.33081 11.946 7.33081ZM11.946 16.5886C9.93921 16.5886 8.29858 14.9529 8.29858 12.9412C8.29858 10.9294 9.93433 9.2937 11.946 9.2937C13.9578 9.2937 15.5935 10.9294 15.5935 12.9412C15.5935 14.9529 13.9529 16.5886 11.946 16.5886ZM19.0945 7.10132C19.0945 7.82886 18.5085 8.40991 17.7859 8.40991C17.0584 8.40991 16.4773 7.82397 16.4773 7.10132C16.4773 6.37866 17.0632 5.79272 17.7859 5.79272C18.5085 5.79272 19.0945 6.37866 19.0945 7.10132ZM22.8103 8.42944C22.7273 6.67651 22.3269 5.12378 21.0427 3.84448C19.7634 2.56519 18.2107 2.16479 16.4578 2.0769C14.6511 1.97437 9.23608 1.97437 7.42944 2.0769C5.6814 2.15991 4.12866 2.5603 2.84448 3.8396C1.5603 5.1189 1.16479 6.67163 1.0769 8.42456C0.974365 10.2312 0.974365 15.6462 1.0769 17.4529C1.15991 19.2058 1.5603 20.7585 2.84448 22.0378C4.12866 23.3171 5.67651 23.7175 7.42944 23.8054C9.23608 23.908 14.6511 23.908 16.4578 23.8054C18.2107 23.7224 19.7634 23.322 21.0427 22.0378C22.322 20.7585 22.7224 19.2058 22.8103 17.4529C22.9128 15.6462 22.9128 10.2361 22.8103 8.42944ZM20.4763 19.3914C20.0955 20.3484 19.3582 21.0857 18.3962 21.4714C16.9558 22.0427 13.5378 21.9109 11.946 21.9109C10.3542 21.9109 6.9314 22.0378 5.49585 21.4714C4.53882 21.0906 3.80151 20.3533 3.41577 19.3914C2.84448 17.9509 2.97632 14.533 2.97632 12.9412C2.97632 11.3494 2.84937 7.92651 3.41577 6.49097C3.79663 5.53394 4.53394 4.79663 5.49585 4.41089C6.93628 3.8396 10.3542 3.97144 11.946 3.97144C13.5378 3.97144 16.9607 3.84448 18.3962 4.41089C19.3533 4.79175 20.0906 5.52905 20.4763 6.49097C21.0476 7.9314 20.9158 11.3494 20.9158 12.9412C20.9158 14.533 21.0476 17.9558 20.4763 19.3914Z" fill="white"/>
</svg>
